<svg xmlns="http://www.w3.org/2000/svg" viewBox="0 0 300 400">
  <rect width="300" height="400" fill="#ffffff" stroke="#c3cad6" stroke-width="2"/>
  <text x="150" y="38" font-family="Arial, sans-serif" font-size="15" font-weight="700" fill="#1c2430" text-anchor="middle">RAPPORT DE TEST</text>
  <text x="150" y="54" font-family="Arial, sans-serif" font-size="10" fill="#8a94a3" text-anchor="middle">Mise en page</text>
  <rect x="24" y="70" width="252" height="1" fill="#d7dde3"/>
  <rect x="24" y="82" width="70" height="7" rx="2" fill="#1c2430" opacity=".7"/>
  <rect x="24" y="98" width="252" height="6" rx="2" fill="#2f6fed" opacity=".3"/>
  <rect x="24" y="110" width="252" height="6" rx="2" fill="#2f6fed" opacity=".3"/>
  <rect x="24" y="122" width="180" height="6" rx="2" fill="#2f6fed" opacity=".3"/>
  <rect x="90" y="140" width="120" height="6" rx="2" fill="#2f6fed" opacity=".55"/>
  <rect x="200" y="156" width="76" height="6" rx="2" fill="#2f6fed" opacity=".3"/>
  <rect x="24" y="180" width="60" height="7" rx="2" fill="#1c2430" opacity=".7"/>
  <circle cx="30" cy="200" r="2" fill="#8a94a3"/>
  <rect x="38" y="197" width="150" height="6" rx="2" fill="#d7dde3"/>
  <circle cx="30" cy="214" r="2" fill="#8a94a3"/>
  <rect x="38" y="211" width="170" height="6" rx="2" fill="#d7dde3"/>
  <rect x="52" y="225" width="120" height="6" rx="2" fill="#eef1f6"/>
  <rect x="24" y="248" width="4" height="30" fill="#c3cad6"/>
  <rect x="36" y="252" width="220" height="6" rx="2" fill="#d7dde3"/>
  <rect x="36" y="264" width="180" height="6" rx="2" fill="#d7dde3"/>
  <rect x="24" y="300" width="252" height="1" stroke="#8a94a3" stroke-dasharray="4 3"/>
  <text x="150" y="320" font-family="Arial, sans-serif" font-size="9" fill="#8a94a3" text-anchor="middle">Saut de page</text>
  <rect x="24" y="340" width="90" height="7" rx="2" fill="#1c2430" opacity=".7"/>
  <rect x="150" y="358" width="60" height="14" rx="7" fill="#2f6fed" opacity=".15"/>
  <rect x="216" y="358" width="60" height="14" rx="7" fill="#2f6fed" opacity=".15"/>
</svg>
